<svg width="33" height="32" viewBox="0 0 33 32" fill="none" xmlns="http://www.w3.org/2000/svg">
<path d="M7.5205 26.1764C6.55143 25.1946 6.55143 23.6025 7.5205 22.6207L9.25163 20.8666L14.5168 26.3578L11.2232 27.2119L7.5205 26.1764Z" fill="url(#paint0_linear_8_1981)"/>
<path d="M0.454364 19.2081C-0.151455 18.5942 -0.151455 17.5988 0.454364 16.985L2.89466 14.5124L7.9312 19.6155L0.454364 19.2081Z" fill="url(#paint1_linear_8_1981)"/>
<path d="M32.2487 17.8412L19.0259 31.2389C18.0209 32.2537 16.3962 32.2537 15.3916 31.2389L2.16874 17.8412C1.16714 16.823 1.16714 15.1767 2.16874 14.1588L15.3916 0.761128C16.3965 -0.253709 18.0212 -0.253709 19.0259 0.761128L32.2487 14.1588C33.2503 15.1767 33.2503 16.823 32.2487 17.8412Z" fill="url(#paint2_linear_8_1981)"/>
<path opacity="0.28" d="M31.4231 14.2545C28.911 15.4844 25.1232 15.9833 19.7368 13.5471C12.9312 10.473 6.46169 12.7241 2.28571 15.104C2.37386 14.9321 2.48785 14.7701 2.63163 14.6248L15.8511 1.22706C16.2132 0.863323 16.6962 0.661896 17.2084 0.661896C17.7206 0.661896 18.2033 0.863631 18.5656 1.23045L31.4231 14.2545Z" fill="url(#paint3_linear_8_1981)"/>
<g opacity="0.44">
<path d="M26.5029 17.3286L24.5812 24.6043L23.4784 22.7302L20.066 26.1911C19.2699 26.9944 18.3923 27.6886 17.4494 28.2571C16.2225 29.0009 14.8492 29.3413 13.4886 29.3117L11.1884 26.9811C13.7102 26.8388 16.0559 25.7812 17.857 23.9566L21.3347 20.4363L19.1814 19.1307L26.5029 17.3286Z" fill="url(#paint4_linear_8_1981)"/>
<path d="M22.6445 8.66818L20.3868 17.2165L19.0883 15.015L15.0786 19.0743C14.201 19.9635 13.2353 20.7372 12.2075 21.3818C10.5959 22.3899 8.77233 22.8232 6.97767 22.7139L4.3252 20.0263C7.39198 19.9306 10.312 18.6579 12.4878 16.453L16.5659 12.3176L14.0408 10.7872L22.6445 8.66818Z" fill="url(#paint5_linear_8_1981)"/>
</g>
<path d="M25.8528 16.5042L23.9311 23.7799L22.8252 21.9058L19.4128 25.3633C18.6173 26.1694 17.7394 26.8611 16.7983 27.4312C13.8136 29.2388 9.97959 28.6678 7.52106 26.1764H9.94494C12.6886 26.1764 15.266 25.0954 17.2072 23.1285L20.6816 19.6113L18.5316 18.3057L25.8528 16.5042Z" fill="url(#paint6_linear_8_1981)"/>
<path d="M21.9934 7.84L19.7358 16.3917L18.4342 14.1868L14.4245 18.2495C13.5469 19.1387 12.5839 19.9102 11.5544 20.5558C8.00699 22.7807 3.40453 22.1971 0.454468 19.208H3.3027C6.50293 19.208 9.57215 17.92 11.8349 15.627L15.9152 11.4925L13.3901 9.96207L21.9934 7.84Z" fill="url(#paint7_linear_8_1981)"/>
<g opacity="0.5">
<path opacity="0.78" d="M25.3939 16.9555L24.0923 21.8874C23.1233 21.1602 22.0533 20.4792 20.8918 19.8645L21.2082 19.5472L19.3813 18.4366L25.3939 16.9555Z" fill="url(#paint8_linear_8_1981)"/>
<path opacity="0.78" d="M21.5343 8.29463L19.6192 15.5503L18.497 13.6528L14.742 17.4608C13.848 17.2163 12.9282 17.0081 11.9852 16.8359C11.708 16.7863 11.4305 16.7401 11.1566 16.697C11.4697 16.4358 11.7734 16.1549 12.0637 15.8608L16.4418 11.4278L14.2395 10.0924L21.5343 8.29463Z" fill="url(#paint9_linear_8_1981)"/>
</g>
<defs>
<linearGradient id="paint0_linear_8_1981" x1="6.79367" y1="24.0391" x2="14.5168" y2="24.0391" gradientUnits="userSpaceOnUse">
<stop stop-color="#B0D1FF"/>
<stop offset="1" stop-color="#4F93FF"/>
</linearGradient>
<linearGradient id="paint1_linear_8_1981" x1="-0.000106391" y1="17.064" x2="7.93108" y2="17.064" gradientUnits="userSpaceOnUse">
<stop stop-color="#B0D1FF"/>
<stop offset="1" stop-color="#4F93FF"/>
</linearGradient>
<linearGradient id="paint2_linear_8_1981" x1="17.0874" y1="28.9622" x2="17.4224" y2="-5.91041" gradientUnits="userSpaceOnUse">
<stop stop-color="#0058D4"/>
<stop offset="1" stop-color="#00245B"/>
</linearGradient>
<linearGradient id="paint3_linear_8_1981" x1="16.9431" y1="7.10729" x2="16.8314" y2="16.4181" gradientUnits="userSpaceOnUse">
<stop/>
<stop offset="1" stop-color="#B0D1FF"/>
</linearGradient>
<linearGradient id="paint4_linear_8_1981" x1="11.189" y1="23.3211" x2="26.5031" y2="23.3211" gradientUnits="userSpaceOnUse">
<stop stop-color="#001334"/>
<stop offset="1" stop-color="#00245B"/>
</linearGradient>
<linearGradient id="paint5_linear_8_1981" x1="4.32556" y1="15.6991" x2="22.6443" y2="15.6991" gradientUnits="userSpaceOnUse">
<stop stop-color="#001334"/>
<stop offset="1" stop-color="#00245B"/>
</linearGradient>
<linearGradient id="paint6_linear_8_1981" x1="7.52103" y1="22.496" x2="25.8529" y2="22.496" gradientUnits="userSpaceOnUse">
<stop stop-color="#0065FF"/>
<stop offset="1" stop-color="#00C4F7"/>
</linearGradient>
<linearGradient id="paint7_linear_8_1981" x1="0.454711" y1="14.872" x2="21.9935" y2="14.872" gradientUnits="userSpaceOnUse">
<stop stop-color="#0065FF"/>
<stop offset="1" stop-color="#00C4F7"/>
</linearGradient>
<linearGradient id="paint8_linear_8_1981" x1="23.494" y1="17.2036" x2="19.8911" y2="23.1118" gradientUnits="userSpaceOnUse">
<stop/>
<stop offset="1" stop-color="#B0D1FF"/>
</linearGradient>
<linearGradient id="paint9_linear_8_1981" x1="16.5231" y1="13.351" x2="12.2675" y2="18.7511" gradientUnits="userSpaceOnUse">
<stop/>
<stop offset="1" stop-color="#B0D1FF"/>
</linearGradient>
</defs>
</svg>
